<?xml version="1.0" encoding="UTF-8" standalone="no" ?>
<!DOCTYPE svg PUBLIC "-//W3C//DTD SVG 1.1//EN" "http://www.w3.org/Graphics/SVG/1.1/DTD/svg11.dtd">
<svg xmlns="http://www.w3.org/2000/svg" xmlns:xlink="http://www.w3.org/1999/xlink" version="1.1" width="500" height="500" viewBox="0 0 500 500" xml:space="preserve">
<desc>Created with Fabric.js 4.6.0</desc>
<defs>
</defs>
<g transform="matrix(0.55 0 0 0.55 239.61 76.26)" id="r-I3dPMvrEZtys8z4Xo-H"  >
<path style="stroke: none; stroke-width: 1; stroke-dasharray: none; stroke-linecap: butt; stroke-dashoffset: 0; stroke-linejoin: miter; stroke-miterlimit: 4; fill: rgb(46,24,106); fill-rule: evenodd; opacity: 1;" vector-effect="non-scaling-stroke"  transform=" translate(-494, -169)" d="M 491.9 71.7 C 490.5 127.4 490.6 126.3 488.6 126.6 C 487.6 126.7 486.3 127.3 485.8 127.8 C 485.3 128.3 482.6 145.8 479.7 166.8 L 474.5 204.9 L 466.5 205.2 L 458.5 205.5 L 458.2 209.2 C 457.9 212.8 457.7 213 454.4 213 C 451 213 451 213 451 217.4 L 451 221.9 L 446.3 222.2 L 441.5 222.5 L 441.2 247.2 L 441 272 L 451 272 L 461 272 L 461 258.5 L 461 245 L 494 245 L 527 245 L 527 258.5 L 527 272 L 537 272 L 547 272 L 547 247 L 547 222 L 542 222 L 537 222 L 537 217.5 C 537 213 537 213 533.5 213 C 530.1 213 530 212.9 530 209 L 530 205.1 L 521.8 204.8 L 513.5 204.5 L 508.3 166.5 C 503 127.4 502.7 126 498.3 126 C 497.3 126 497 122.3 497 108.7 C 497 99.3 496.7 85.8 496.3 78.7 C 495.8 67.3 495.5 66 493.8 66 C 492.3 66 492 66.9 491.9 71.7 z" stroke-linecap="round" />
</g>
<g transform="matrix(0.55 0 0 0.55 239.61 307.77)" id="ITo6oEvngI-OqhctFZqY4"  >
<path style="stroke: none; stroke-width: 1; stroke-dasharray: none; stroke-linecap: butt; stroke-dashoffset: 0; stroke-linejoin: miter; stroke-miterlimit: 4; fill: rgb(254,118,36); fill-rule: evenodd; opacity: 1;" vector-effect="non-scaling-stroke"  transform=" translate(0, 0)" d="M -19 -145.05 L -19 45.94999999999999 L -23.2 46.249999999999986 L -27.5 46.54999999999998 L -27.8 156.34999999999997 L -28 266.04999999999995 L -33 266.04999999999995 L -38 266.04999999999995 L -38 209.04999999999995 L -38 152.04999999999995 L -80 152.04999999999995 L -122 152.04999999999995 L -122 209.04999999999995 L -122 266.04999999999995 L -149 266.04999999999995 L -176 266.04999999999995 L -176 301.04999999999995 L -176 336.04999999999995 L 0 336.04999999999995 L 176 336.04999999999995 L 176 301.04999999999995 L 176 266.04999999999995 L 149 266.04999999999995 L 122 266.04999999999995 L 121.8 209.24999999999994 L 121.5 152.54999999999995 L 79.8 152.24999999999994 L 38 152.04999999999995 L 38 209.04999999999995 L 38 266.04999999999995 L 33 266.04999999999995 L 28 266.04999999999995 L 28 156.04999999999995 L 28 46.049999999999955 L 23.5 46.049999999999955 L 19 46.049999999999955 L 19 -145.05000000000004 L 19 -336.05000000000007 L 14.8 -335.75000000000006 L 10.5 -335.45000000000005 L 10.2 -144.75000000000006 C 10.2 -144.75000000000006 10.22293 -166.62497000000005 10.17293 -118.92497000000006 C 10.16706 -113.32368000000005 10.152619999999999 -99.54549000000006 10.152619999999999 -99.54549000000006 L 9.999999999999998 46.049999999999955 L 7.499999999999998 46.049999999999955 L 4.999999999999998 46.049999999999955 L 4.999999999999998 -144.95000000000005 L 4.999999999999998 -335.95000000000005 L -1.7763568394002505e-15 -335.95000000000005 L -5.000000000000002 -335.95000000000005 L -4.867520000000002 -209.43403000000006 L -4.800000000000002 -144.95000000000005 L -4.500000000000002 46.049999999999955 L -7.200000000000002 46.049999999999955 L -10.000000000000002 46.049999999999955 L -10.000000000000002 -144.95000000000005 L -10.000000000000002 -335.95000000000005 L -14.500000000000002 -335.95000000000005 L -19 -335.95000000000005 z" stroke-linecap="round" />
</g>
<g transform="matrix(0.55 0 0 0.55 212.79 160.85)" id="VHRYmeL3Zyv56AMyPKNAP"  >
<path style="stroke: none; stroke-width: 1; stroke-dasharray: none; stroke-linecap: butt; stroke-dashoffset: 0; stroke-linejoin: miter; stroke-miterlimit: 4; fill: rgb(46,24,110); fill-opacity: 0.91; fill-rule: evenodd; opacity: 1;" vector-effect="non-scaling-stroke"  transform=" translate(0, 0)" d="M -16 -0.05 L -16 44.550000000000004 L -0.1999999999999993 44.25000000000001 L 15.5 43.95000000000001 L 15.8 -0.3499999999999872 L 16 -44.54999999999999 L 0 -44.54999999999999 L -16 -44.54999999999999 z" stroke-linecap="round" />
</g>
<g transform="matrix(0.55 0 0 0.55 266.43 160.85)" id="MIR2CL5oMrEYh8BrIQbQh"  >
<path style="stroke: none; stroke-width: 1; stroke-dasharray: none; stroke-linecap: butt; stroke-dashoffset: 0; stroke-linejoin: miter; stroke-miterlimit: 4; fill: rgb(46,24,106); fill-opacity: 0.91; fill-rule: evenodd; opacity: 1;" vector-effect="non-scaling-stroke"  transform=" translate(-543, -323.55)" d="M 527.2 323.2 L 527.5 367.5 L 543.3 367.8 L 559 368.1 L 559 323.5 L 559 279 L 543 279 L 527 279 L 527.2 323.2 z" stroke-linecap="round" />
</g>
<g transform="matrix(0.55 0 0 0.55 201.02 286.72)" id="GBxn3HPBMoTcqTHhRr2r9"  >
<path style="stroke: none; stroke-width: 1; stroke-dasharray: none; stroke-linecap: butt; stroke-dashoffset: 0; stroke-linejoin: miter; stroke-miterlimit: 4; fill: rgb(93,33,209); fill-rule: evenodd; opacity: 1;" vector-effect="non-scaling-stroke"  transform=" translate(-423.5, -553.5)" d="M 414 507 L 414 638 L 400 638 L 386 638 L 386 684.5 L 386 731 L 423.3 730.8 L 460.5 730.5 L 460.8 553.2 L 461 376 L 437.5 376 L 414 376 L 414 507 z" stroke-linecap="round" />
</g>
<g transform="matrix(0.55 0 0 0.55 278.2 286.72)" id="Y1UJo1uRFkdtHB52nwrmv"  >
<path style="stroke: none; stroke-width: 1; stroke-dasharray: none; stroke-linecap: butt; stroke-dashoffset: 0; stroke-linejoin: miter; stroke-miterlimit: 4; fill: rgb(93,33,209); fill-rule: evenodd; opacity: 1;" vector-effect="non-scaling-stroke"  transform=" translate(-564.5, -553.5)" d="M 527.2 553.2 L 527.5 730.5 L 564.8 730.8 L 602 731 L 602 684.5 L 602 638 L 588 638 L 574 638 L 574 507 L 574 376 L 550.5 376 L 527 376 L 527.2 553.2 z" stroke-linecap="round" />
</g>
<g transform="matrix(0.84 0 0 0.55 239.61 241.62)" id="9M9KZWucImRB5FjGfKF2I"  >
<path style="stroke: none; stroke-width: 1; stroke-dasharray: none; stroke-linecap: butt; stroke-dashoffset: 0; stroke-linejoin: miter; stroke-miterlimit: 4; fill: rgb(46,24,106); fill-opacity: 0.91; fill-rule: evenodd; opacity: 1;" vector-effect="non-scaling-stroke"  transform=" translate(0, 0)" d="M -15.8 -0.35 L -15.5 43.949999999999996 L 0.3000000000000007 44.24999999999999 L 16 44.54999999999999 L 16 -0.05000000000001137 L 16 -44.55000000000001 L 0 -44.55000000000001 L -16 -44.55000000000001 z" stroke-linecap="round" />
</g>
<g transform="matrix(0.09 0 0 0.55 239.61 241.62)" id="OqyY80SD1wzPzTjaYmSoj"  >
<path style="stroke: none; stroke-width: 1; stroke-dasharray: none; stroke-linecap: butt; stroke-dashoffset: 0; stroke-linejoin: miter; stroke-miterlimit: 4; fill: rgb(254,186,145); fill-rule: evenodd; opacity: 1;" vector-effect="non-scaling-stroke"  transform=" translate(0, 0)" d="M -15.8 -0.35 L -15.5 43.949999999999996 L 0.3000000000000007 44.24999999999999 L 16 44.54999999999999 L 16 -0.05000000000001137 L 16 -44.55000000000001 L 0 -44.55000000000001 L -16 -44.55000000000001 z" stroke-linecap="round" />
</g>
<g transform="matrix(0.25 0 0 0.08 233.13 213.5)" id="1ic41zjC49V7iKHN9Iemg"  >
<path style="stroke: none; stroke-width: 1; stroke-dasharray: none; stroke-linecap: butt; stroke-dashoffset: 0; stroke-linejoin: miter; stroke-miterlimit: 4; fill: rgb(26,175,26); fill-rule: evenodd; opacity: 1;" vector-effect="non-scaling-stroke"  transform=" translate(0, 0)" d="M -15.8 -0.35 L -15.5 43.949999999999996 L 0.3000000000000007 44.24999999999999 L 16 44.54999999999999 L 16 -0.05000000000001137 L 16 -44.55000000000001 L 0 -44.55000000000001 L -16 -44.55000000000001 z" stroke-linecap="round" />
</g>
<g transform="matrix(0.25 0 0 0.08 246.08 213.55)" id="tIYc3aMTCDL9sETfUsXRV"  >
<path style="stroke: none; stroke-width: 1; stroke-dasharray: none; stroke-linecap: butt; stroke-dashoffset: 0; stroke-linejoin: miter; stroke-miterlimit: 4; fill: rgb(219,89,96); fill-rule: evenodd; opacity: 1;" vector-effect="non-scaling-stroke"  transform=" translate(0, 0)" d="M -15.8 -0.35 L -15.5 43.949999999999996 L 0.3000000000000007 44.24999999999999 L 16 44.54999999999999 L 16 -0.05000000000001137 L 16 -44.55000000000001 L 0 -44.55000000000001 L -16 -44.55000000000001 z" stroke-linecap="round" />
</g>
</svg>